<svg width="636" height="470" viewBox="0 0 636 470" fill="none" xmlns="http://www.w3.org/2000/svg">
<g clip-path="url(#clip0_0_37)">
<path d="M271.123 318.709C271.123 318.709 355.586 308.567 385.147 292.508C414.709 276.449 634.311 268.843 634.311 318.709C634.311 368.576 381.769 390.551 381.769 390.551L249.163 382.945L271.123 318.709Z" fill="#FBBEBE"/>
<path opacity="0.1" d="M271.123 318.709C271.123 318.709 355.586 308.567 385.147 292.508C414.709 276.449 634.311 268.843 634.311 318.709C634.311 368.576 381.769 390.551 381.769 390.551L249.163 382.945L271.123 318.709Z" fill="black"/>
<path d="M295.618 309.412L277.88 360.969L0 364.35V288.282C0 288.282 106.422 263.771 190.884 316.174C190.884 316.174 290.55 304.341 295.618 309.412Z" fill="#2769DA"/>
<path opacity="0.1" d="M295.618 309.157L277.88 360.714L0 364.095V288.027C0 288.027 106.422 263.516 190.884 315.919C190.884 315.919 290.55 304.086 295.618 309.157Z" fill="#11397D"/>
<path d="M613.32 287.86C613.32 290.74 606.864 292.879 606.229 295.658C605.6 298.414 609.435 302.605 608.222 305.237C606.967 307.929 605.485 310.508 603.791 312.947C602.202 315.225 597.29 314.892 595.276 317.028C593.305 318.969 591.216 320.786 589.022 322.471C586.885 324.249 583.99 324.622 581.561 326.259C579.25 327.816 579.53 333.525 576.974 334.943C574.532 336.297 570.793 335.208 568.144 336.425C565.602 337.594 564.261 341.821 561.542 342.854C558.92 343.851 555.676 343.422 552.904 344.285C550.221 345.121 547.22 344.985 544.409 345.689C541.68 346.372 539.595 350.466 536.755 351.018C533.989 351.556 530.747 350.122 527.886 350.529C525.093 350.927 521.844 347.389 518.97 347.657C516.157 347.919 513.507 349.557 510.626 349.689C507.801 349.819 505.009 351.063 502.128 351.063C499.247 351.063 496.274 353.768 493.45 353.638C490.569 353.506 487.961 349.407 485.148 349.144C482.274 348.877 478.846 353.159 476.053 352.761C473.192 352.354 470.926 348.162 468.16 347.624C465.32 347.072 461.651 350.068 458.921 349.384C456.11 348.681 454.441 343.805 451.758 342.969C448.987 342.106 445.551 343.275 442.93 342.278C440.211 341.244 436.899 341.411 434.356 340.242C431.707 339.024 429.805 336.143 427.363 334.789C424.807 333.371 423.629 329.856 421.318 328.299C418.888 326.662 415.186 326.871 413.049 325.092C410.793 323.214 406.566 323.116 404.662 321.096C402.648 318.96 401.833 315.372 400.243 313.094C398.569 310.694 401.855 305.621 400.686 303.085C399.473 300.453 394.401 299.384 393.772 296.628C393.123 293.75 392.789 290.81 392.778 287.86C392.778 284.979 397.116 282.777 397.751 279.999C398.38 277.243 395.187 273.284 396.401 270.652C397.57 268.115 397.421 264.217 399.096 261.817C400.686 259.539 404.654 258.646 406.667 256.509C408.571 254.489 411.979 253.926 414.235 252.048C416.372 250.27 416.1 244.907 418.53 243.27C420.84 241.714 424.066 241.003 426.622 239.586C429.064 238.231 432.52 238.46 435.169 237.242C437.712 236.074 441.694 238.376 444.413 237.343C447.035 236.346 449.161 234.167 451.933 233.304C454.615 232.468 455.876 226.096 458.687 225.392C461.416 224.709 464.775 225.843 467.614 225.291C470.381 224.753 474.103 229.781 476.964 229.373C479.757 228.976 481.847 222.264 484.721 221.996C487.533 221.734 490.705 225.21 493.585 225.078C496.41 224.948 499.246 226.985 502.128 226.985C505.008 226.985 507.879 224.189 510.703 224.319C513.583 224.451 516.123 228.146 518.936 228.408C521.81 228.676 525.338 223.056 528.132 223.454C530.992 223.862 533.203 228.205 535.969 228.743C538.81 229.295 542.367 226.599 545.097 227.282C547.908 227.985 549.6 232.602 552.283 233.438C555.054 234.301 556.762 237.558 559.383 238.555C562.102 239.589 567.153 234.752 569.696 235.921C572.345 237.139 574.633 239.246 577.075 240.6C579.631 242.018 583.694 241.305 586.004 242.862C588.434 244.499 589.032 248.894 591.169 250.672C593.425 252.55 597.146 253.115 599.05 255.136C601.064 257.272 601.344 261.101 602.934 263.379C604.608 265.778 604.556 269.103 605.725 271.639C606.938 274.271 610.176 276.261 610.806 279.017C611.44 281.795 613.32 284.98 613.32 287.86Z" fill="#3F3D56"/>
<path d="M309.131 340.685C309.131 340.685 404.574 291.663 466.231 310.257C527.888 328.852 614.04 296.734 624.175 307.722C634.311 318.709 648.669 437.037 527.044 443.799C405.418 450.56 301.53 423.514 301.53 423.514L309.131 340.685Z" fill="#FBBEBE"/>
<path d="M286.655 335.464C286.655 335.464 324.335 333.078 322.645 346.601C320.956 360.124 319.267 464.929 309.132 467.464C298.996 470 218.757 470 185.817 470H0V307.965C0 307.965 131.761 300.115 197.641 333.078C197.641 333.078 276.848 331.934 286.655 335.464Z" fill="#57B894"/>
<path d="M463.174 82.0177C459.574 82.2212 456.101 83.4243 453.146 85.4921C450.19 87.5598 447.869 90.4105 446.442 93.7245C442.258 103.845 447.645 115.733 455.732 123.112C463.819 130.492 474.207 134.71 483.646 140.255C496.323 147.702 507.715 158.04 514.058 171.311C520.401 184.581 521.076 201.02 513.619 213.697C506.699 225.465 494.115 232.507 482.113 239.002" stroke="#3F3D56" stroke-miterlimit="10"/>
<path d="M496.959 20.3181C493.359 20.5216 489.886 21.7247 486.931 23.7925C483.975 25.8602 481.654 28.7109 480.227 32.0249C476.043 42.1452 481.43 54.0329 489.517 61.4127C497.604 68.7925 507.992 73.0108 517.43 78.5553C530.108 86.0026 541.499 96.3407 547.843 109.611C554.186 122.882 554.86 139.32 547.404 151.998C540.484 163.765 527.9 170.808 515.898 177.303" stroke="#3F3D56" stroke-miterlimit="10"/>
<path d="M608.041 34.5087C605.069 32.464 601.588 31.2881 597.986 31.1127C594.384 30.9373 590.805 31.7694 587.649 33.5156C578.149 38.955 575.137 51.6549 577.016 62.4442C578.896 73.2335 584.53 82.9327 588.601 93.0988C594.069 106.754 596.753 121.907 593.65 136.286C590.547 150.665 581.025 164.076 567.373 169.533C554.702 174.598 540.443 172.458 526.98 170.242" stroke="#3F3D56" stroke-miterlimit="10"/>
<path d="M510.151 162.058C521.347 162.058 530.422 157.647 530.422 152.205C530.422 146.764 521.347 142.353 510.151 142.353C498.956 142.353 489.88 146.764 489.88 152.205C489.88 157.647 498.956 162.058 510.151 162.058Z" fill="#57B894"/>
<path d="M507.618 160.367C518.813 160.367 527.888 155.956 527.888 150.515C527.888 145.073 518.813 140.662 507.618 140.662C496.422 140.662 487.347 145.073 487.347 150.515C487.347 155.956 496.422 160.367 507.618 160.367Z" stroke="#3F3D56" stroke-miterlimit="10"/>
<path d="M554.072 153.606C565.267 153.606 574.343 149.195 574.343 143.753C574.343 138.312 565.267 133.901 554.072 133.901C542.876 133.901 533.801 138.312 533.801 143.753C533.801 149.195 542.876 153.606 554.072 153.606Z" fill="#57B894"/>
<path d="M551.538 151.915C562.733 151.915 571.809 147.504 571.809 142.063C571.809 136.621 562.733 132.21 551.538 132.21C540.343 132.21 531.267 136.621 531.267 142.063C531.267 147.504 540.343 151.915 551.538 151.915Z" stroke="#3F3D56" stroke-miterlimit="10"/>
<path d="M560.829 190.795C572.024 190.795 581.1 186.383 581.1 180.942C581.1 175.501 572.024 171.089 560.829 171.089C549.633 171.089 540.558 175.501 540.558 180.942C540.558 186.383 549.633 190.795 560.829 190.795Z" fill="#57B894"/>
<path d="M558.295 189.104C569.49 189.104 578.566 184.693 578.566 179.252C578.566 173.81 569.49 169.399 558.295 169.399C547.099 169.399 538.024 173.81 538.024 179.252C538.024 184.693 547.099 189.104 558.295 189.104Z" stroke="#3F3D56" stroke-miterlimit="10"/>
<path d="M556.606 97.8226C567.801 97.8226 576.876 93.4115 576.876 87.97C576.876 82.5286 567.801 78.1174 556.606 78.1174C545.41 78.1174 536.335 82.5286 536.335 87.97C536.335 93.4115 545.41 97.8226 556.606 97.8226Z" fill="#57B894"/>
<path d="M554.072 96.1323C565.267 96.1323 574.343 91.7211 574.343 86.2797C574.343 80.8382 565.267 76.4271 554.072 76.4271C542.876 76.4271 533.801 80.8382 533.801 86.2797C533.801 91.7211 542.876 96.1323 554.072 96.1323Z" stroke="#3F3D56" stroke-miterlimit="10"/>
<path d="M505.928 91.9063C517.124 91.9063 526.199 87.4952 526.199 82.0537C526.199 76.6123 517.124 72.2011 505.928 72.2011C494.733 72.2011 485.657 76.6123 485.657 82.0537C485.657 87.4952 494.733 91.9063 505.928 91.9063Z" fill="#57B894"/>
<path d="M503.394 90.2159C514.59 90.2159 523.665 85.8047 523.665 80.3633C523.665 74.9218 514.59 70.5107 503.394 70.5107C492.199 70.5107 483.124 74.9218 483.124 80.3633C483.124 85.8047 492.199 90.2159 503.394 90.2159Z" stroke="#3F3D56" stroke-miterlimit="10"/>
<path d="M528.733 70.7763C539.928 70.7763 549.004 66.3652 549.004 60.9237C549.004 55.4823 539.928 51.0711 528.733 51.0711C517.538 51.0711 508.462 55.4823 508.462 60.9237C508.462 66.3652 517.538 70.7763 528.733 70.7763Z" fill="#57B894"/>
<path d="M526.199 69.0859C537.395 69.0859 546.47 64.6747 546.47 59.2333C546.47 53.7918 537.395 49.3807 526.199 49.3807C515.004 49.3807 505.928 53.7918 505.928 59.2333C505.928 64.6747 515.004 69.0859 526.199 69.0859Z" stroke="#3F3D56" stroke-miterlimit="10"/>
<path d="M578.566 75.0023C589.761 75.0023 598.837 70.5912 598.837 65.1497C598.837 59.7083 589.761 55.2971 578.566 55.2971C567.37 55.2971 558.295 59.7083 558.295 65.1497C558.295 70.5912 567.37 75.0023 578.566 75.0023Z" fill="#57B894"/>
<path d="M576.032 73.3119C587.227 73.3119 596.303 68.9007 596.303 63.4593C596.303 58.0179 587.227 53.6067 576.032 53.6067C564.837 53.6067 555.761 58.0179 555.761 63.4593C555.761 68.9007 564.837 73.3119 576.032 73.3119Z" stroke="#3F3D56" stroke-miterlimit="10"/>
<path d="M615.729 102.894C626.924 102.894 636 98.4828 636 93.0413C636 87.5999 626.924 83.1887 615.729 83.1887C604.534 83.1887 595.458 87.5999 595.458 93.0413C595.458 98.4828 604.534 102.894 615.729 102.894Z" fill="#57B894"/>
<path d="M613.195 101.204C624.391 101.204 633.466 96.7923 633.466 91.3509C633.466 85.9095 624.391 81.4983 613.195 81.4983C602 81.4983 592.924 85.9095 592.924 91.3509C592.924 96.7923 602 101.204 613.195 101.204Z" stroke="#3F3D56" stroke-miterlimit="10"/>
<path d="M484.813 53.8723C496.008 53.8723 505.084 49.4612 505.084 44.0197C505.084 38.5783 496.008 34.1671 484.813 34.1671C473.617 34.1671 464.542 38.5783 464.542 44.0197C464.542 49.4612 473.617 53.8723 484.813 53.8723Z" fill="#57B894"/>
<path d="M482.279 52.182C493.474 52.182 502.55 47.7708 502.55 42.3294C502.55 36.8879 493.474 32.4767 482.279 32.4767C471.084 32.4767 462.008 36.8879 462.008 42.3294C462.008 47.7708 471.084 52.182 482.279 52.182Z" stroke="#3F3D56" stroke-miterlimit="10"/>
<path d="M497.482 21.7548C508.677 21.7548 517.753 17.3436 517.753 11.9022C517.753 6.46072 508.677 2.04956 497.482 2.04956C486.287 2.04956 477.211 6.46072 477.211 11.9022C477.211 17.3436 486.287 21.7548 497.482 21.7548Z" fill="#57B894"/>
<path d="M494.948 20.0644C506.143 20.0644 515.219 15.6532 515.219 10.2118C515.219 4.77035 506.143 0.359192 494.948 0.359192C483.753 0.359192 474.677 4.77035 474.677 10.2118C474.677 15.6532 483.753 20.0644 494.948 20.0644Z" stroke="#3F3D56" stroke-miterlimit="10"/>
<path d="M614.884 45.4204C626.08 45.4204 635.155 41.0092 635.155 35.5678C635.155 30.1263 626.08 25.7151 614.884 25.7151C603.689 25.7151 594.614 30.1263 594.614 35.5678C594.614 41.0092 603.689 45.4204 614.884 45.4204Z" fill="#57B894"/>
<path d="M612.351 43.7299C623.546 43.7299 632.622 39.3188 632.622 33.8773C632.622 28.4359 623.546 24.0247 612.351 24.0247C601.155 24.0247 592.08 28.4359 592.08 33.8773C592.08 39.3188 601.155 43.7299 612.351 43.7299Z" stroke="#3F3D56" stroke-miterlimit="10"/>
<path d="M428.223 123.179C439.418 123.179 448.494 118.767 448.494 113.326C448.494 107.885 439.418 103.473 428.223 103.473C417.028 103.473 407.952 107.885 407.952 113.326C407.952 118.767 417.028 123.179 428.223 123.179Z" fill="#57B894"/>
<path d="M425.689 121.488C436.885 121.488 445.96 117.077 445.96 111.636C445.96 106.194 436.885 101.783 425.689 101.783C414.494 101.783 405.418 106.194 405.418 111.636C405.418 117.077 414.494 121.488 425.689 121.488Z" stroke="#3F3D56" stroke-miterlimit="10"/>
<path d="M498.327 118.107C509.522 118.107 518.598 113.696 518.598 108.255C518.598 102.813 509.522 98.4022 498.327 98.4022C487.131 98.4022 478.056 102.813 478.056 108.255C478.056 113.696 487.131 118.107 498.327 118.107Z" fill="#57B894"/>
<path d="M495.793 116.417C506.988 116.417 516.064 112.006 516.064 106.564C516.064 101.123 506.988 96.7118 495.793 96.7118C484.597 96.7118 475.522 101.123 475.522 106.564C475.522 112.006 484.597 116.417 495.793 116.417Z" stroke="#3F3D56" stroke-miterlimit="10"/>
<path d="M590.39 125.714C601.586 125.714 610.661 121.303 610.661 115.862C610.661 110.42 601.586 106.009 590.39 106.009C579.195 106.009 570.12 110.42 570.12 115.862C570.12 121.303 579.195 125.714 590.39 125.714Z" fill="#57B894"/>
<path d="M587.857 124.024C599.052 124.024 608.128 119.613 608.128 114.171C608.128 108.73 599.052 104.319 587.857 104.319C576.661 104.319 567.586 108.73 567.586 114.171C567.586 119.613 576.661 124.024 587.857 124.024Z" stroke="#3F3D56" stroke-miterlimit="10"/>
<path d="M541.402 129.095C552.598 129.095 561.673 124.684 561.673 119.242C561.673 113.801 552.598 109.39 541.402 109.39C530.207 109.39 521.131 113.801 521.131 119.242C521.131 124.684 530.207 129.095 541.402 129.095Z" fill="#57B894"/>
<path d="M538.869 127.405C550.064 127.405 559.139 122.994 559.139 117.552C559.139 112.111 550.064 107.699 538.869 107.699C527.673 107.699 518.598 112.111 518.598 117.552C518.598 122.994 527.673 127.405 538.869 127.405Z" stroke="#3F3D56" stroke-miterlimit="10"/>
<path d="M544.781 44.5752C555.976 44.5752 565.052 40.164 565.052 34.7225C565.052 29.2811 555.976 24.8699 544.781 24.8699C533.586 24.8699 524.51 29.2811 524.51 34.7225C524.51 40.164 533.586 44.5752 544.781 44.5752Z" fill="#57B894"/>
<path d="M542.247 42.8847C553.442 42.8847 562.518 38.4736 562.518 33.0321C562.518 27.5907 553.442 23.1795 542.247 23.1795C531.052 23.1795 521.976 27.5907 521.976 33.0321C521.976 38.4736 531.052 42.8847 542.247 42.8847Z" stroke="#3F3D56" stroke-miterlimit="10"/>
<path d="M457.785 96.9775C468.98 96.9775 478.056 92.5663 478.056 87.1249C478.056 81.6834 468.98 77.2723 457.785 77.2723C446.59 77.2723 437.514 81.6834 437.514 87.1249C437.514 92.5663 446.59 96.9775 457.785 96.9775Z" fill="#57B894"/>
<path d="M455.251 95.2871C466.446 95.2871 475.522 90.876 475.522 85.4345C475.522 79.9931 466.446 75.5819 455.251 75.5819C444.056 75.5819 434.98 79.9931 434.98 85.4345C434.98 90.876 444.056 95.2871 455.251 95.2871Z" stroke="#3F3D56" stroke-miterlimit="10"/>
<path d="M469.61 135.011C480.805 135.011 489.88 130.6 489.88 125.159C489.88 119.717 480.805 115.306 469.61 115.306C458.414 115.306 449.339 119.717 449.339 125.159C449.339 130.6 458.414 135.011 469.61 135.011Z" fill="#57B894"/>
<path d="M467.076 133.321C478.271 133.321 487.347 128.91 487.347 123.468C487.347 118.027 478.271 113.616 467.076 113.616C455.88 113.616 446.805 118.027 446.805 123.468C446.805 128.91 455.88 133.321 467.076 133.321Z" stroke="#3F3D56" stroke-miterlimit="10"/>
<g opacity="0.3">
<path opacity="0.3" d="M470.081 192.433C472.943 187.309 473.465 182.151 471.248 180.911C469.03 179.671 464.913 182.819 462.052 187.942C459.191 193.066 458.668 198.224 460.885 199.464C463.103 200.704 467.22 197.556 470.081 192.433Z" fill="#57B894"/>
<path opacity="0.3" d="M468.745 193.207C471.606 188.084 472.128 182.925 469.911 181.685C467.694 180.445 463.577 183.593 460.716 188.717C457.854 193.84 457.332 198.998 459.549 200.238C461.766 201.478 465.883 198.33 468.745 193.207Z" stroke="#3F3D56" stroke-miterlimit="10"/>
</g>
<g opacity="0.3">
<path opacity="0.3" d="M575.742 216.993C577.436 215.099 575.266 210.391 570.896 206.477C566.526 202.563 561.609 200.925 559.916 202.819C558.222 204.713 560.391 209.421 564.762 213.335C569.132 217.249 574.048 218.887 575.742 216.993Z" fill="#57B894"/>
<path opacity="0.3" d="M575.279 215.519C576.973 213.625 574.803 208.917 570.433 205.002C566.063 201.088 561.147 199.451 559.453 201.345C557.759 203.239 559.928 207.947 564.299 211.861C568.669 215.775 573.585 217.413 575.279 215.519Z" stroke="#3F3D56" stroke-miterlimit="10"/>
</g>
<g opacity="0.3">
<path opacity="0.3" d="M481.145 163.746C482.839 161.852 480.669 157.143 476.298 153.229C471.928 149.315 467.012 147.677 465.318 149.571C463.624 151.465 465.794 156.174 470.164 160.088C474.535 164.002 479.451 165.64 481.145 163.746Z" fill="#57B894"/>
<path opacity="0.3" d="M480.682 162.271C482.376 160.377 480.206 155.669 475.835 151.755C471.465 147.841 466.549 146.203 464.855 148.097C463.161 149.991 465.331 154.699 469.701 158.614C474.072 162.528 478.988 164.165 480.682 162.271Z" stroke="#3F3D56" stroke-miterlimit="10"/>
</g>
</g>
<defs>
<clipPath id="clip0_0_37">
<rect width="636" height="470" fill="white"/>
</clipPath>
</defs>
</svg>
